<svg width="19" height="18" viewBox="0 0 19 18" fill="none" xmlns="http://www.w3.org/2000/svg">
<path d="M9.24121 17.3833C9.72949 17.8716 10.5225 17.8716 11.0107 17.3833L17.2607 11.1333C17.749 10.645 17.749 9.85205 17.2607 9.36377C16.7725 8.87549 15.9795 8.87549 15.4912 9.36377L11.374 13.4849L11.374 1.50049C11.374 0.809082 10.8154 0.250488 10.124 0.250488C9.43262 0.250488 8.87402 0.809082 8.87402 1.50049L8.87402 13.481L4.75684 9.36768C4.26856 8.87939 3.47558 8.87939 2.9873 9.36768C2.49902 9.85596 2.49902 10.6489 2.9873 11.1372L9.2373 17.3872L9.24121 17.3833Z" fill="black"/>
</svg>
