<svg width="48" height="43" viewBox="0 0 48 43" fill="none" xmlns="http://www.w3.org/2000/svg">
<g clip-path="url(#clip0_3118_3957)">
<path d="M23.4326 0.0351506C24.5524 -0.112216 25.6334 0.208205 26.4968 0.867976C26.9171 1.1884 27.2581 1.60075 27.5226 2.06043L47.1902 36.2995C49.0003 39.0535 47.6588 42.5809 44.365 42.9784C44.228 42.9946 44.0897 42.9987 43.9514 42.9987H4.09399C3.88721 42.9987 3.68042 42.9865 3.47632 42.9527C1.58167 42.6431 0.279184 41.2532 0.0361426 39.5119C-0.088735 38.6169 0.115366 37.7056 0.565194 36.9228L20.5684 2.04015C21.0545 1.19245 21.8132 0.521867 22.733 0.204149C22.9639 0.124382 23.1989 0.0662464 23.4326 0.0365026V0.0351506Z" fill="#FCC832"/>
<path d="M24.0008 37.4393C25.4225 37.4393 26.5749 36.2789 26.5749 34.8475C26.5749 33.4161 25.4225 32.2558 24.0008 32.2558C22.5792 32.2558 21.4268 33.4161 21.4268 34.8475C21.4268 36.2789 22.5792 37.4393 24.0008 37.4393Z" fill="white"/>
<path d="M24.0008 13.432C22.5789 13.432 21.4268 13.24 21.4268 14.6718V26.7721C21.4268 28.2038 22.5789 28.0119 24.0008 28.0119C25.4228 28.0119 26.5749 28.2038 26.5749 26.7721V14.6718C26.5749 13.24 25.4228 13.432 24.0008 13.432Z" fill="white"/>
</g>
<defs>
<clipPath id="clip0_3118_3957">
<rect width="48" height="43" fill="white"/>
</clipPath>
</defs>
</svg>
