<svg width="18" height="18" viewBox="0 0 18 18" fill="none" xmlns="http://www.w3.org/2000/svg">
<path d="M17.5656 12.9968C16.8937 12.9218 16.25 12.6687 15.7563 12.2812C15.3156 11.9343 14.6875 11.9281 14.25 12.2812C13.0656 13.2312 10.9 13.2312 9.69687 12.2343C9.275 11.8843 8.66563 11.95 8.2375 12.2906C7.05 13.2312 4.89687 13.2281 3.7 12.2375C3.27813 11.8875 2.65938 11.9593 2.22813 12.3C1.74375 12.6812 1.10313 12.9281 0.425 13C0.178125 13.025 0 13.2437 0 13.4906V14.4968C0 14.7812 0.2375 15.0218 0.521875 14.9968C1.42188 14.9187 2.275 14.6406 3.00312 14.1875C4.76875 15.2687 7.28438 15.2531 9.00313 14.1875C10.7688 15.2687 13.2844 15.2531 15.0031 14.1875C15.7312 14.6312 16.5938 14.9156 17.475 14.9937C17.7594 15.0187 17.9969 14.7781 17.9969 14.4937V13.5062C18 13.2562 17.8187 13.025 17.5656 12.9968ZM17.5656 8.49683C16.8937 8.42183 16.25 8.1687 15.7563 7.7812C15.3156 7.43433 14.6875 7.42808 14.25 7.7812C13.0656 8.7312 10.9 8.7312 9.69687 7.73433C9.275 7.38433 8.66563 7.44995 8.2375 7.79058C7.05 8.7312 4.89687 8.72808 3.7 7.73745C3.27813 7.38745 2.65938 7.45933 2.22813 7.79995C1.74375 8.1812 1.10313 8.42808 0.425 8.49995C0.178125 8.52495 0 8.7437 0 8.99058V9.99683C0 10.2812 0.2375 10.5218 0.521875 10.4968C1.42188 10.4187 2.275 10.1406 3.00312 9.68745C4.76875 10.7687 7.28438 10.7531 9.00313 9.68745C10.7688 10.7687 13.2844 10.7531 15.0031 9.68745C15.7312 10.1312 16.5938 10.4156 17.475 10.4937C17.7594 10.5187 17.9969 10.2781 17.9969 9.9937V9.00621C18 8.7562 17.8187 8.52495 17.5656 8.49683ZM17.5656 3.99683C16.8937 3.9187 16.25 3.6687 15.7563 3.2812C15.3156 2.93433 14.6875 2.92808 14.25 3.2812C13.0656 4.2312 10.9 4.2312 9.69687 3.23433C9.275 2.88433 8.66563 2.94995 8.2375 3.29058C7.05 4.2312 4.89687 4.22808 3.7 3.23745C3.27813 2.88745 2.65938 2.95933 2.22813 3.29995C1.74375 3.6812 1.10313 3.92808 0.425 3.99995C0.178125 4.02495 0 4.2437 0 4.49058V5.49683C0 5.7812 0.2375 6.02183 0.521875 5.99683C1.42188 5.9187 2.275 5.64058 3.00312 5.18745C4.76875 6.2687 7.28438 6.25308 9.00313 5.18745C10.7688 6.2687 13.2844 6.25308 15.0031 5.18745C15.7312 5.6312 16.5938 5.91558 17.475 5.9937C17.7594 6.0187 17.9969 5.77808 17.9969 5.4937V4.5062C18 4.2562 17.8187 4.02495 17.5656 3.99683Z" fill="black"/>
</svg>
