<?xml version="1.0" encoding="UTF-8"?>
<svg id="Layer_2" data-name="Layer 2" xmlns="http://www.w3.org/2000/svg" width="1920" height="1920" viewBox="0 0 1920 1920">
  <defs>
    <style>
      .cls-1 {
        fill: #6db047;
      }
    </style>
  </defs>
  <g id="Layer_1-2" data-name="Layer 1">
    <path class="cls-1" d="M1458.19,836.95c-9.3,20.09-12.75,102.13-18.43,134.28-44.93,254.3-208.84,456.48-448.75,552-25,9.95-30.78,12.43-56.52,1.83-317.22-130.64-475.15-413.39-473.92-751.54,5.99-53.05-7.93-123.64.73-174.55,1.21-7.13,7.48-18.93,12.46-24.12,18.88-19.68,86.46-22.63,115.43-28.28,114.34-22.28,216.84-57.5,313.89-122.47,18.3-12.25,41.55-40.09,65.16-35.56,11.36,2.18,49.42,35.59,62.78,44.45,91.84,60.96,214.91,98.16,322.73,118.86,41.72,8.01,102.46,0,107.64,56.96,1.18,13-2.56,22.73-2.68,33.84-.6,53.52-.04,106.11-2.61,159.39-.36,7.39,2.83,33.31,2.09,34.9ZM1104.41,1394.97c266.65-173.13,296.11-445.94,294.07-739.14-.09-12.21,6.27-25.34,1.71-38.05-1.63-2.36-38.44-4.57-46.44-5.82-109.53-17.13-233.21-57.38-329.49-112.1-14.73-8.37-54.68-39.25-68.54-38.84-8.64.26-40.31,26.1-51.08,32.58-68.01,40.99-158.59,77-235.9,95.94-47.96,11.75-97.47,15.25-145.4,27.05-7.64,6.76-5.54,100.97-5.29,117.73,4.3,286.16,86.09,549.42,352.8,692.37,27.49,14.74,56.56,26.48,83.67,41.97,8.58,2.13,33.21-10.65,42.74-14.96,36.6-16.51,75.42-38.14,107.14-58.74Z"/>
    <path class="cls-1" d="M987.08,0c11.21,3.31,23.03,1.33,34.49,2.01,392.2,23.31,732.33,290.57,852.14,662.78,25.07,77.89,41.54,159.72,44.25,241.75l2.04,27.46v53l-2.04,27.46c-23.46,487.07-423.82,882.6-910.42,903.5l-27.46,2.04h-41c-1.04-1.66-3.8-1-5.49-1.02C441.16,1913.83,21.81,1502.32,2.21,1011.46l-2.04-27.46c.4-16.63-.53-33.38,0-50,6.59-204.7,76.44-403.12,202.57-563.91C378.92,145.48,644.34,8.21,932.09,0h55-.01ZM1504.04,328c-310.34-261.96-751.82-273.39-1069.38-15.98C79.8,599.67,21.15,1122.18,308.17,1480.47c298.2,372.25,831.88,418.52,1195.87,111.53,26.79-22.6,50.73-45.82,73.99-72,289-325.29,289.72-794.82,0-1120-23.98-26.92-46.44-48.74-73.99-72Z"/>
  </g>
</svg>