<?xml version="1.0" encoding="UTF-8"?>
<svg id="Layer_2" data-name="Layer 2" xmlns="http://www.w3.org/2000/svg" width="1920" height="1920" viewBox="0 0 1920 1920">
  <defs>
    <style>
      .cls-1 {
        fill: #6db047;
      }
    </style>
  </defs>
  <g id="Layer_1-2" data-name="Layer 1">
    <path class="cls-1" d="M1574.25,669.52c-237.89,249.04-485.37,489.81-724.79,737.79-29.34,27.33-77.68,28.56-107.33,1.4l-391.7-396.06c-1.33-6.4-5.66-10.76-7.26-17.06-7.3-28.83-1.1-45.2,15.84-68.72l22.88-22.88c28.34-24.35,53.09-57.56,82.92-80.06,40.7-14.64,68.77.64,97.22,28.59,2.27,2.54,4.67,5.78,8.54,9.93,57.93,62.23,140.18,155.39,204.42,207.44,17.28,14,27.9,18.84,47.32,4.3,140.01-142.26,279.64-284.51,420.33-426.05,40.84-41.08,79.08-87.62,122.84-125.93,38.68-33.86,75.46-45.03,117.39-5.79,16.13,15.1,78.82,77.2,88.06,92.08,11.6,18.67,10.97,41.11,3.32,61.01Z"/>
    <path class="cls-1" d="M987.08,0c11.21,3.31,23.03,1.33,34.49,2.01,392.2,23.31,732.33,290.57,852.14,662.78,25.07,77.89,41.54,159.72,44.25,241.75l2.04,27.46v53l-2.04,27.46c-23.46,487.07-423.82,882.6-910.42,903.5l-27.46,2.04h-41c-1.04-1.66-3.8-1-5.49-1.02C441.16,1913.83,21.81,1502.32,2.21,1011.46l-2.04-27.46c.4-16.63-.53-33.38,0-50,6.59-204.7,76.44-403.12,202.57-563.91C378.92,145.48,644.34,8.21,932.09,0h55-.01ZM1504.04,328c-310.34-261.96-751.82-273.39-1069.38-15.98C79.8,599.67,21.15,1122.18,308.17,1480.47c298.2,372.25,831.88,418.52,1195.87,111.53,26.79-22.6,50.73-45.82,73.99-72,289-325.29,289.72-794.82,0-1120-23.98-26.92-46.44-48.74-73.99-72Z"/>
  </g>
</svg>