<?xml version="1.0" encoding="UTF-8"?>
<svg id="Layer_2" data-name="Layer 2" xmlns="http://www.w3.org/2000/svg" width="1920" height="1920" viewBox="0 0 1920 1920">
  <defs>
    <style>
      .cls-1 {
        fill: #6db047;
      }
    </style>
  </defs>
  <g id="Layer_1-2" data-name="Layer 1">
    <path class="cls-1" d="M1356.61,1292.45c-246.26,240.94-676.29,203.45-866.94-86.66-24.64-37.49-65.34-103.89-3.65-128.32,57.38-22.72,67.31,41.65,90.7,78.25,91.56,143.24,300.39,213.67,463.75,186.08,159-26.86,272.02-118.57,340.6-262.41,43.13-34.46,95.86,18.59,81.76,64.7-13.19,43.13-73.44,116.3-106.22,148.37Z"/>
    <path class="cls-1" d="M1264.02,618.01c41.17-1.95,92.26,26.29,113.77,60.89,62.33,100.27-27.5,251.46-147.34,207.07-124.47-46.11-101.1-261.58,33.56-267.96Z"/>
    <path class="cls-1" d="M626.7,620.82c134.17-18.35,192.55,164.33,91.74,245.34-66.67,53.57-160.98,18.87-188.53-58.99-25.87-73.13,13.21-174.91,96.79-186.34Z"/>
    <path class="cls-1" d="M987.08,0c11.21,3.31,23.03,1.33,34.49,2.01,392.2,23.31,732.33,290.57,852.14,662.78,25.07,77.89,41.54,159.72,44.25,241.75l2.04,27.46v53l-2.04,27.46c-23.46,487.07-423.82,882.6-910.42,903.5l-27.46,2.04h-41c-1.04-1.66-3.8-1-5.49-1.02C441.16,1913.83,21.81,1502.32,2.21,1011.46l-2.04-27.46c.4-16.63-.53-33.38,0-50,6.59-204.7,76.44-403.12,202.57-563.91C378.92,145.48,644.34,8.21,932.09,0h55-.01ZM1504.04,328c-310.34-261.96-751.82-273.39-1069.38-15.98C79.8,599.67,21.15,1122.18,308.17,1480.47c298.2,372.25,831.88,418.52,1195.87,111.53,26.79-22.6,50.73-45.82,73.99-72,289-325.29,289.72-794.82,0-1120-23.98-26.92-46.44-48.74-73.99-72Z"/>
  </g>
</svg>