<svg width="18" height="18" viewBox="0 0 18 18" fill="none" xmlns="http://www.w3.org/2000/svg">
<g clip-path="url(#clip0_2258_46790)">
<path d="M6.46567 13.0113C6.19848 12.8566 5.85395 12.948 5.69926 13.2223L3.44926 17.1598C3.29457 17.4305 3.38949 17.775 3.6602 17.9262C3.74809 17.9754 3.84301 18 3.93793 18C4.13129 18 4.32114 17.898 4.4266 17.7152L6.6766 13.7777C6.83129 13.5105 6.73637 13.166 6.46567 13.0113ZM9.84067 13.0113C9.57348 12.8566 9.22895 12.948 9.07426 13.2223L6.82426 17.1598C6.66957 17.4305 6.76449 17.775 7.0352 17.9262C7.12309 17.9754 7.21801 18 7.31293 18C7.50629 18 7.69613 17.898 7.8016 17.7152L10.0516 13.7777C10.2063 13.5105 10.1114 13.166 9.84067 13.0113ZM3.09067 13.0113C2.82348 12.8566 2.47895 12.948 2.32426 13.2223L0.0742599 17.1598C-0.0804276 17.4305 0.0144943 17.775 0.285197 17.9262C0.373088 17.9754 0.46801 18 0.562932 18C0.756291 18 0.946135 17.898 1.0516 17.7152L3.3016 13.7777C3.45629 13.5105 3.36137 13.166 3.09067 13.0113ZM16.5907 13.0113C16.3235 12.8566 15.9789 12.948 15.8243 13.2223L13.5743 17.1598C13.4196 17.4305 13.5145 17.775 13.7852 17.9262C13.8731 17.9754 13.968 18 14.0629 18C14.2563 18 14.4461 17.898 14.5516 17.7152L16.8016 13.7777C16.9563 13.5105 16.8614 13.166 16.5907 13.0113ZM13.2157 13.0113C12.9485 12.8566 12.6039 12.948 12.4493 13.2223L10.1993 17.1598C10.0446 17.4305 10.1395 17.775 10.4102 17.9262C10.4981 17.9754 10.593 18 10.6879 18C10.8813 18 11.0711 17.898 11.1766 17.7152L13.4266 13.7777C13.5813 13.5105 13.4864 13.166 13.2157 13.0113ZM14.6254 4.5C14.6043 4.5 14.5868 4.50703 14.5692 4.50703C14.6079 4.32422 14.6254 4.13438 14.6254 3.9375C14.6254 2.38359 13.3668 1.125 11.8129 1.125C10.9481 1.125 10.1852 1.52227 9.6684 2.1375C9.01449 0.871875 7.7102 0 6.18793 0C4.01528 0 2.25043 1.76133 2.25043 3.9375C2.25043 4.19414 2.27856 4.44023 2.32426 4.68281C0.977776 5.12578 0.000431786 6.38086 0.000431786 7.875C0.000431786 9.73828 1.51215 11.25 3.37543 11.25H14.6254C16.4887 11.25 18.0004 9.73828 18.0004 7.875C18.0004 6.01172 16.4887 4.5 14.6254 4.5Z" fill="black"/>
</g>
<defs>
<clipPath id="clip0_2258_46790">
<rect width="18" height="18" fill="white"/>
</clipPath>
</defs>
</svg>
