<svg width="293" height="48" viewBox="0 0 293 48" fill="none" xmlns="http://www.w3.org/2000/svg">
<rect x="1" y="1" width="291" height="46" fill="white"/>
<rect x="1" y="1" width="291" height="46" stroke="black" stroke-width="2"/>
<path d="M17.9766 30L22.375 18.5469H24.0078L28.6953 30H26.9688L25.6328 26.5312H20.8438L19.5859 30H17.9766ZM21.2812 25.2969H25.1641L23.9688 22.125C23.6042 21.1615 23.3333 20.3698 23.1562 19.75C23.0104 20.4844 22.8047 21.2135 22.5391 21.9375L21.2812 25.2969ZM29.7344 30V18.5469H31.1406V25.0781L34.4688 21.7031H36.2891L33.1172 24.7812L36.6094 30H34.875L32.1328 25.7578L31.1406 26.7109V30H29.7344ZM40.7969 28.7422L41 29.9844C40.6042 30.0677 40.25 30.1094 39.9375 30.1094C39.4271 30.1094 39.0312 30.0286 38.75 29.8672C38.4688 29.7057 38.2708 29.4948 38.1562 29.2344C38.0417 28.9688 37.9844 28.4141 37.9844 27.5703V22.7969H36.9531V21.7031H37.9844V19.6484L39.3828 18.8047V21.7031H40.7969V22.7969H39.3828V27.6484C39.3828 28.0495 39.4062 28.3073 39.4531 28.4219C39.5052 28.5365 39.5859 28.6276 39.6953 28.6953C39.8099 28.763 39.9714 28.7969 40.1797 28.7969C40.3359 28.7969 40.5417 28.7786 40.7969 28.7422ZM47.6172 30V28.7812C46.9714 29.7188 46.0938 30.1875 44.9844 30.1875C44.4948 30.1875 44.0365 30.0938 43.6094 29.9062C43.1875 29.7188 42.8724 29.4844 42.6641 29.2031C42.4609 28.9167 42.3177 28.5677 42.2344 28.1562C42.1771 27.8802 42.1484 27.4427 42.1484 26.8438V21.7031H43.5547V26.3047C43.5547 27.0391 43.5833 27.5339 43.6406 27.7891C43.7292 28.1589 43.9167 28.4505 44.2031 28.6641C44.4896 28.8724 44.8438 28.9766 45.2656 28.9766C45.6875 28.9766 46.0833 28.8698 46.4531 28.6562C46.8229 28.4375 47.0833 28.1432 47.2344 27.7734C47.3906 27.3984 47.4688 26.8568 47.4688 26.1484V21.7031H48.875V30H47.6172ZM56.7656 27.3281L58.2188 27.5078C57.9896 28.3568 57.5651 29.0156 56.9453 29.4844C56.3255 29.9531 55.5339 30.1875 54.5703 30.1875C53.3568 30.1875 52.3932 29.8151 51.6797 29.0703C50.9714 28.3203 50.6172 27.2708 50.6172 25.9219C50.6172 24.526 50.9766 23.4427 51.6953 22.6719C52.4141 21.901 53.3464 21.5156 54.4922 21.5156C55.6016 21.5156 56.5078 21.8932 57.2109 22.6484C57.9141 23.4036 58.2656 24.4661 58.2656 25.8359C58.2656 25.9193 58.263 26.0443 58.2578 26.2109H52.0703C52.1224 27.1224 52.3802 27.8203 52.8438 28.3047C53.3073 28.7891 53.8854 29.0312 54.5781 29.0312C55.0938 29.0312 55.5339 28.8958 55.8984 28.625C56.263 28.3542 56.5521 27.9219 56.7656 27.3281ZM52.1484 25.0547H56.7812C56.7188 24.3568 56.5417 23.8333 56.25 23.4844C55.8021 22.9427 55.2214 22.6719 54.5078 22.6719C53.862 22.6719 53.3177 22.888 52.875 23.3203C52.4375 23.7526 52.1953 24.3307 52.1484 25.0547ZM59.9609 30V18.5469H61.3672V30H59.9609ZM63.5234 30V18.5469H64.9297V30H63.5234ZM72.7969 27.3281L74.25 27.5078C74.0208 28.3568 73.5964 29.0156 72.9766 29.4844C72.3568 29.9531 71.5651 30.1875 70.6016 30.1875C69.388 30.1875 68.4245 29.8151 67.7109 29.0703C67.0026 28.3203 66.6484 27.2708 66.6484 25.9219C66.6484 24.526 67.0078 23.4427 67.7266 22.6719C68.4453 21.901 69.3776 21.5156 70.5234 21.5156C71.6328 21.5156 72.5391 21.8932 73.2422 22.6484C73.9453 23.4036 74.2969 24.4661 74.2969 25.8359C74.2969 25.9193 74.2943 26.0443 74.2891 26.2109H68.1016C68.1536 27.1224 68.4115 27.8203 68.875 28.3047C69.3385 28.7891 69.9167 29.0312 70.6094 29.0312C71.125 29.0312 71.5651 28.8958 71.9297 28.625C72.2943 28.3542 72.5833 27.9219 72.7969 27.3281ZM68.1797 25.0547H72.8125C72.75 24.3568 72.5729 23.8333 72.2812 23.4844C71.8333 22.9427 71.2526 22.6719 70.5391 22.6719C69.8932 22.6719 69.349 22.888 68.9062 23.3203C68.4688 23.7526 68.2266 24.3307 68.1797 25.0547ZM76.0234 30V21.7031H77.2891V22.8828C77.8984 21.9714 78.7786 21.5156 79.9297 21.5156C80.4297 21.5156 80.888 21.6068 81.3047 21.7891C81.7266 21.9661 82.0417 22.2005 82.25 22.4922C82.4583 22.7839 82.6042 23.1302 82.6875 23.5312C82.7396 23.7917 82.7656 24.2474 82.7656 24.8984V30H81.3594V24.9531C81.3594 24.3802 81.3047 23.9531 81.1953 23.6719C81.0859 23.3854 80.8906 23.1589 80.6094 22.9922C80.3333 22.8203 80.0078 22.7344 79.6328 22.7344C79.0339 22.7344 78.5156 22.9245 78.0781 23.3047C77.6458 23.6849 77.4297 24.4062 77.4297 25.4688V30H76.0234ZM89.0469 26.3203L90.4766 26.1953C90.5443 26.7682 90.7005 27.2396 90.9453 27.6094C91.1953 27.974 91.5807 28.2708 92.1016 28.5C92.6224 28.724 93.2083 28.8359 93.8594 28.8359C94.4375 28.8359 94.9479 28.75 95.3906 28.5781C95.8333 28.4062 96.1615 28.1719 96.375 27.875C96.5938 27.5729 96.7031 27.2448 96.7031 26.8906C96.7031 26.5312 96.599 26.2188 96.3906 25.9531C96.1823 25.6823 95.8385 25.4557 95.3594 25.2734C95.0521 25.1536 94.3724 24.9688 93.3203 24.7188C92.2682 24.4635 91.5312 24.224 91.1094 24C90.5625 23.7135 90.1536 23.3594 89.8828 22.9375C89.6172 22.5104 89.4844 22.0339 89.4844 21.5078C89.4844 20.9297 89.6484 20.3906 89.9766 19.8906C90.3047 19.3854 90.7839 19.0026 91.4141 18.7422C92.0443 18.4818 92.7448 18.3516 93.5156 18.3516C94.3646 18.3516 95.112 18.4896 95.7578 18.7656C96.4089 19.0365 96.9089 19.4375 97.2578 19.9688C97.6068 20.5 97.7943 21.1016 97.8203 21.7734L96.3672 21.8828C96.2891 21.1589 96.0234 20.612 95.5703 20.2422C95.1224 19.8724 94.4583 19.6875 93.5781 19.6875C92.6615 19.6875 91.9922 19.8568 91.5703 20.1953C91.1536 20.5286 90.9453 20.9323 90.9453 21.4062C90.9453 21.8177 91.0938 22.1562 91.3906 22.4219C91.6823 22.6875 92.4427 22.9609 93.6719 23.2422C94.9062 23.5182 95.7526 23.7604 96.2109 23.9688C96.8776 24.276 97.3698 24.6667 97.6875 25.1406C98.0052 25.6094 98.1641 26.151 98.1641 26.7656C98.1641 27.375 97.9896 27.9505 97.6406 28.4922C97.2917 29.0286 96.7891 29.4479 96.1328 29.75C95.4818 30.0469 94.7474 30.1953 93.9297 30.1953C92.8932 30.1953 92.0234 30.0443 91.3203 29.7422C90.6224 29.4401 90.0729 28.987 89.6719 28.3828C89.276 27.7734 89.0677 27.0859 89.0469 26.3203ZM103.125 28.7422L103.328 29.9844C102.932 30.0677 102.578 30.1094 102.266 30.1094C101.755 30.1094 101.359 30.0286 101.078 29.8672C100.797 29.7057 100.599 29.4948 100.484 29.2344C100.37 28.9688 100.312 28.4141 100.312 27.5703V22.7969H99.2812V21.7031H100.312V19.6484L101.711 18.8047V21.7031H103.125V22.7969H101.711V27.6484C101.711 28.0495 101.734 28.3073 101.781 28.4219C101.833 28.5365 101.914 28.6276 102.023 28.6953C102.138 28.763 102.299 28.7969 102.508 28.7969C102.664 28.7969 102.87 28.7786 103.125 28.7422ZM109.922 28.9766C109.401 29.4193 108.898 29.7318 108.414 29.9141C107.935 30.0964 107.419 30.1875 106.867 30.1875C105.956 30.1875 105.255 29.9661 104.766 29.5234C104.276 29.0755 104.031 28.5052 104.031 27.8125C104.031 27.4062 104.122 27.0365 104.305 26.7031C104.492 26.3646 104.734 26.0938 105.031 25.8906C105.333 25.6875 105.672 25.5339 106.047 25.4297C106.323 25.3568 106.74 25.2865 107.297 25.2188C108.432 25.0833 109.268 24.9219 109.805 24.7344C109.81 24.5417 109.812 24.4193 109.812 24.3672C109.812 23.7943 109.68 23.3906 109.414 23.1562C109.055 22.8385 108.521 22.6797 107.812 22.6797C107.151 22.6797 106.661 22.7969 106.344 23.0312C106.031 23.2604 105.799 23.6693 105.648 24.2578L104.273 24.0703C104.398 23.4818 104.604 23.0078 104.891 22.6484C105.177 22.2839 105.591 22.0052 106.133 21.8125C106.674 21.6146 107.302 21.5156 108.016 21.5156C108.724 21.5156 109.299 21.599 109.742 21.7656C110.185 21.9323 110.51 22.1432 110.719 22.3984C110.927 22.6484 111.073 22.9661 111.156 23.3516C111.203 23.5911 111.227 24.0234 111.227 24.6484V26.5234C111.227 27.8307 111.255 28.6589 111.312 29.0078C111.375 29.3516 111.495 29.6823 111.672 30H110.203C110.057 29.7083 109.964 29.3672 109.922 28.9766ZM109.805 25.8359C109.294 26.0443 108.529 26.2214 107.508 26.3672C106.93 26.4505 106.521 26.5443 106.281 26.6484C106.042 26.7526 105.857 26.9062 105.727 27.1094C105.596 27.3073 105.531 27.5286 105.531 27.7734C105.531 28.1484 105.672 28.4609 105.953 28.7109C106.24 28.9609 106.656 29.0859 107.203 29.0859C107.745 29.0859 108.227 28.9688 108.648 28.7344C109.07 28.4948 109.38 28.1693 109.578 27.7578C109.729 27.4401 109.805 26.9714 109.805 26.3516V25.8359ZM113.414 30V21.7031H114.68V22.8828C115.289 21.9714 116.169 21.5156 117.32 21.5156C117.82 21.5156 118.279 21.6068 118.695 21.7891C119.117 21.9661 119.432 22.2005 119.641 22.4922C119.849 22.7839 119.995 23.1302 120.078 23.5312C120.13 23.7917 120.156 24.2474 120.156 24.8984V30H118.75V24.9531C118.75 24.3802 118.695 23.9531 118.586 23.6719C118.477 23.3854 118.281 23.1589 118 22.9922C117.724 22.8203 117.398 22.7344 117.023 22.7344C116.424 22.7344 115.906 22.9245 115.469 23.3047C115.036 23.6849 114.82 24.4062 114.82 25.4688V30H113.414ZM127.703 30V28.9531C127.177 29.776 126.404 30.1875 125.383 30.1875C124.721 30.1875 124.112 30.0052 123.555 29.6406C123.003 29.276 122.573 28.7682 122.266 28.1172C121.964 27.4609 121.812 26.7083 121.812 25.8594C121.812 25.0312 121.951 24.2812 122.227 23.6094C122.503 22.9323 122.917 22.4141 123.469 22.0547C124.021 21.6953 124.638 21.5156 125.32 21.5156C125.82 21.5156 126.266 21.6224 126.656 21.8359C127.047 22.0443 127.365 22.3177 127.609 22.6562V18.5469H129.008V30H127.703ZM123.258 25.8594C123.258 26.9219 123.482 27.7161 123.93 28.2422C124.378 28.7682 124.906 29.0312 125.516 29.0312C126.13 29.0312 126.651 28.7812 127.078 28.2812C127.51 27.776 127.727 27.0078 127.727 25.9766C127.727 24.8411 127.508 24.0078 127.07 23.4766C126.633 22.9453 126.094 22.6797 125.453 22.6797C124.828 22.6797 124.305 22.9349 123.883 23.4453C123.466 23.9557 123.258 24.7604 123.258 25.8594ZM130.703 25.8516C130.703 24.3151 131.13 23.1771 131.984 22.4375C132.698 21.8229 133.568 21.5156 134.594 21.5156C135.734 21.5156 136.667 21.8906 137.391 22.6406C138.115 23.3854 138.477 24.4167 138.477 25.7344C138.477 26.8021 138.315 27.6432 137.992 28.2578C137.674 28.8672 137.208 29.3411 136.594 29.6797C135.984 30.0182 135.318 30.1875 134.594 30.1875C133.432 30.1875 132.492 29.8151 131.773 29.0703C131.06 28.3255 130.703 27.2526 130.703 25.8516ZM132.148 25.8516C132.148 26.9141 132.38 27.7109 132.844 28.2422C133.307 28.7682 133.891 29.0312 134.594 29.0312C135.292 29.0312 135.872 28.7656 136.336 28.2344C136.799 27.7031 137.031 26.8932 137.031 25.8047C137.031 24.7786 136.797 24.0026 136.328 23.4766C135.865 22.9453 135.286 22.6797 134.594 22.6797C133.891 22.6797 133.307 22.9427 132.844 23.4688C132.38 23.9948 132.148 24.7891 132.148 25.8516ZM140.117 30V21.7031H141.383V22.9609C141.706 22.3724 142.003 21.9844 142.273 21.7969C142.549 21.6094 142.852 21.5156 143.18 21.5156C143.654 21.5156 144.135 21.6667 144.625 21.9688L144.141 23.2734C143.797 23.0703 143.453 22.9688 143.109 22.9688C142.802 22.9688 142.526 23.0625 142.281 23.25C142.036 23.4323 141.862 23.6875 141.758 24.0156C141.602 24.5156 141.523 25.0625 141.523 25.6562V30H140.117ZM148.531 28.7422L148.734 29.9844C148.339 30.0677 147.984 30.1094 147.672 30.1094C147.161 30.1094 146.766 30.0286 146.484 29.8672C146.203 29.7057 146.005 29.4948 145.891 29.2344C145.776 28.9688 145.719 28.4141 145.719 27.5703V22.7969H144.688V21.7031H145.719V19.6484L147.117 18.8047V21.7031H148.531V22.7969H147.117V27.6484C147.117 28.0495 147.141 28.3073 147.188 28.4219C147.24 28.5365 147.32 28.6276 147.43 28.6953C147.544 28.763 147.706 28.7969 147.914 28.7969C148.07 28.7969 148.276 28.7786 148.531 28.7422ZM156.672 30L153.516 21.7031H155L156.781 26.6719C156.974 27.2083 157.151 27.7656 157.312 28.3438C157.438 27.9062 157.612 27.3802 157.836 26.7656L159.68 21.7031H161.125L157.984 30H156.672ZM168.047 27.3281L169.5 27.5078C169.271 28.3568 168.846 29.0156 168.227 29.4844C167.607 29.9531 166.815 30.1875 165.852 30.1875C164.638 30.1875 163.674 29.8151 162.961 29.0703C162.253 28.3203 161.898 27.2708 161.898 25.9219C161.898 24.526 162.258 23.4427 162.977 22.6719C163.695 21.901 164.628 21.5156 165.773 21.5156C166.883 21.5156 167.789 21.8932 168.492 22.6484C169.195 23.4036 169.547 24.4661 169.547 25.8359C169.547 25.9193 169.544 26.0443 169.539 26.2109H163.352C163.404 27.1224 163.661 27.8203 164.125 28.3047C164.589 28.7891 165.167 29.0312 165.859 29.0312C166.375 29.0312 166.815 28.8958 167.18 28.625C167.544 28.3542 167.833 27.9219 168.047 27.3281ZM163.43 25.0547H168.062C168 24.3568 167.823 23.8333 167.531 23.4844C167.083 22.9427 166.503 22.6719 165.789 22.6719C165.143 22.6719 164.599 22.888 164.156 23.3203C163.719 23.7526 163.477 24.3307 163.43 25.0547ZM171.258 30V21.7031H172.523V22.9609C172.846 22.3724 173.143 21.9844 173.414 21.7969C173.69 21.6094 173.992 21.5156 174.32 21.5156C174.794 21.5156 175.276 21.6667 175.766 21.9688L175.281 23.2734C174.938 23.0703 174.594 22.9688 174.25 22.9688C173.943 22.9688 173.667 23.0625 173.422 23.25C173.177 23.4323 173.003 23.6875 172.898 24.0156C172.742 24.5156 172.664 25.0625 172.664 25.6562V30H171.258ZM178.133 30L175.594 21.7031H177.047L178.367 26.4922L178.859 28.2734C178.88 28.1849 179.023 27.6146 179.289 26.5625L180.609 21.7031H182.055L183.297 26.5156L183.711 28.1016L184.188 26.5L185.609 21.7031H186.977L184.383 30H182.922L181.602 25.0312L181.281 23.6172L179.602 30H178.133ZM193.844 27.3281L195.297 27.5078C195.068 28.3568 194.643 29.0156 194.023 29.4844C193.404 29.9531 192.612 30.1875 191.648 30.1875C190.435 30.1875 189.471 29.8151 188.758 29.0703C188.049 28.3203 187.695 27.2708 187.695 25.9219C187.695 24.526 188.055 23.4427 188.773 22.6719C189.492 21.901 190.424 21.5156 191.57 21.5156C192.68 21.5156 193.586 21.8932 194.289 22.6484C194.992 23.4036 195.344 24.4661 195.344 25.8359C195.344 25.9193 195.341 26.0443 195.336 26.2109H189.148C189.201 27.1224 189.458 27.8203 189.922 28.3047C190.385 28.7891 190.964 29.0312 191.656 29.0312C192.172 29.0312 192.612 28.8958 192.977 28.625C193.341 28.3542 193.63 27.9219 193.844 27.3281ZM189.227 25.0547H193.859C193.797 24.3568 193.62 23.8333 193.328 23.4844C192.88 22.9427 192.299 22.6719 191.586 22.6719C190.94 22.6719 190.396 22.888 189.953 23.3203C189.516 23.7526 189.273 24.3307 189.227 25.0547ZM197.07 30V21.7031H198.336V22.8828C198.945 21.9714 199.826 21.5156 200.977 21.5156C201.477 21.5156 201.935 21.6068 202.352 21.7891C202.773 21.9661 203.089 22.2005 203.297 22.4922C203.505 22.7839 203.651 23.1302 203.734 23.5312C203.786 23.7917 203.812 24.2474 203.812 24.8984V30H202.406V24.9531C202.406 24.3802 202.352 23.9531 202.242 23.6719C202.133 23.3854 201.938 23.1589 201.656 22.9922C201.38 22.8203 201.055 22.7344 200.68 22.7344C200.081 22.7344 199.562 22.9245 199.125 23.3047C198.693 23.6849 198.477 24.4062 198.477 25.4688V30H197.07ZM211.359 30V28.9531C210.833 29.776 210.06 30.1875 209.039 30.1875C208.378 30.1875 207.768 30.0052 207.211 29.6406C206.659 29.276 206.229 28.7682 205.922 28.1172C205.62 27.4609 205.469 26.7083 205.469 25.8594C205.469 25.0312 205.607 24.2812 205.883 23.6094C206.159 22.9323 206.573 22.4141 207.125 22.0547C207.677 21.6953 208.294 21.5156 208.977 21.5156C209.477 21.5156 209.922 21.6224 210.312 21.8359C210.703 22.0443 211.021 22.3177 211.266 22.6562V18.5469H212.664V30H211.359ZM206.914 25.8594C206.914 26.9219 207.138 27.7161 207.586 28.2422C208.034 28.7682 208.562 29.0312 209.172 29.0312C209.786 29.0312 210.307 28.7812 210.734 28.2812C211.167 27.776 211.383 27.0078 211.383 25.9766C211.383 24.8411 211.164 24.0078 210.727 23.4766C210.289 22.9453 209.75 22.6797 209.109 22.6797C208.484 22.6797 207.961 22.9349 207.539 23.4453C207.122 23.9557 206.914 24.7604 206.914 25.8594ZM220.562 27.3281L222.016 27.5078C221.786 28.3568 221.362 29.0156 220.742 29.4844C220.122 29.9531 219.331 30.1875 218.367 30.1875C217.154 30.1875 216.19 29.8151 215.477 29.0703C214.768 28.3203 214.414 27.2708 214.414 25.9219C214.414 24.526 214.773 23.4427 215.492 22.6719C216.211 21.901 217.143 21.5156 218.289 21.5156C219.398 21.5156 220.305 21.8932 221.008 22.6484C221.711 23.4036 222.062 24.4661 222.062 25.8359C222.062 25.9193 222.06 26.0443 222.055 26.2109H215.867C215.919 27.1224 216.177 27.8203 216.641 28.3047C217.104 28.7891 217.682 29.0312 218.375 29.0312C218.891 29.0312 219.331 28.8958 219.695 28.625C220.06 28.3542 220.349 27.9219 220.562 27.3281ZM215.945 25.0547H220.578C220.516 24.3568 220.339 23.8333 220.047 23.4844C219.599 22.9427 219.018 22.6719 218.305 22.6719C217.659 22.6719 217.115 22.888 216.672 23.3203C216.234 23.7526 215.992 24.3307 215.945 25.0547ZM223.789 30V21.7031H225.055V22.8828C225.664 21.9714 226.544 21.5156 227.695 21.5156C228.195 21.5156 228.654 21.6068 229.07 21.7891C229.492 21.9661 229.807 22.2005 230.016 22.4922C230.224 22.7839 230.37 23.1302 230.453 23.5312C230.505 23.7917 230.531 24.2474 230.531 24.8984V30H229.125V24.9531C229.125 24.3802 229.07 23.9531 228.961 23.6719C228.852 23.3854 228.656 23.1589 228.375 22.9922C228.099 22.8203 227.773 22.7344 227.398 22.7344C226.799 22.7344 226.281 22.9245 225.844 23.3047C225.411 23.6849 225.195 24.4062 225.195 25.4688V30H223.789Z" fill="black"/>
<rect x="246" y="1" width="46" height="46" fill="#E40422"/>
<rect x="246" y="1" width="46" height="46" stroke="black" stroke-width="2"/>
<path d="M269.864 32.55C271.734 30.293 276 24.8227 276 21.75C276 18.0234 272.865 15 269 15C265.135 15 262 18.0234 262 21.75C262 24.8227 266.266 30.293 268.136 32.55C268.584 33.0879 269.416 33.0879 269.864 32.55ZM269 19.5C269.619 19.5 270.212 19.7371 270.65 20.159C271.088 20.581 271.333 21.1533 271.333 21.75C271.333 22.3467 271.088 22.919 270.65 23.341C270.212 23.7629 269.619 24 269 24C268.381 24 267.788 23.7629 267.35 23.341C266.912 22.919 266.667 22.3467 266.667 21.75C266.667 21.1533 266.912 20.581 267.35 20.159C267.788 19.7371 268.381 19.5 269 19.5Z" fill="white"/>
</svg>
