<svg width="48" height="48" viewBox="0 0 48 48" fill="none" xmlns="http://www.w3.org/2000/svg">
<g clip-path="url(#clip0_2425_73576)">
<path d="M47.25 24C47.25 36.8438 36.8438 47.25 24 47.25C11.1562 47.25 0.75 36.8438 0.75 24C0.75 11.1562 11.1562 0.75 24 0.75C36.8438 0.75 47.25 11.1562 47.25 24ZM21.3094 36.3094L38.5594 19.0594C39.1406 18.4781 39.1406 17.5219 38.5594 16.9406L36.4406 14.8219C35.8594 14.2406 34.9031 14.2406 34.3219 14.8219L20.25 28.8844L13.6781 22.3125C13.0969 21.7313 12.1406 21.7313 11.5594 22.3125L9.44062 24.4313C8.85938 25.0125 8.85938 25.9688 9.44062 26.55L19.1906 36.3C19.7719 36.8813 20.7281 36.8813 21.3094 36.3V36.3094Z" fill="#00AA84"/>
</g>
<defs>
<clipPath id="clip0_2425_73576">
<rect width="48" height="48" fill="white"/>
</clipPath>
</defs>
</svg>
