<?xml version="1.0" encoding="UTF-8"?>
<svg id="Layer_2" data-name="Layer 2" xmlns="http://www.w3.org/2000/svg" width="1920" height="1920" viewBox="0 0 1920 1920">
  <defs>
    <style>
      .cls-1 {
        fill: #ec1f26;
      }
    </style>
  </defs>
  <g id="Layer_1-2" data-name="Layer 1">
    <path class="cls-1" d="M987.08,0c11.21,3.31,23.03,1.33,34.49,2.01,392.2,23.31,732.33,290.57,852.14,662.78,25.07,77.89,41.54,159.72,44.25,241.75l2.04,27.46v53l-2.04,27.46c-23.46,487.07-423.82,882.6-910.42,903.5l-27.46,2.04h-41c-1.04-1.66-3.8-1-5.49-1.02C441.16,1913.83,21.81,1502.32,2.21,1011.46l-2.04-27.46c.4-16.63-.53-33.38,0-50,6.59-204.7,76.44-403.12,202.57-563.91C378.92,145.48,644.34,8.21,932.09,0h55ZM1504.04,328c-310.34-261.96-751.82-273.39-1069.38-15.98C79.8,599.67,21.15,1122.18,308.17,1480.47c298.2,372.25,831.88,418.52,1195.87,111.53,26.79-22.6,50.73-45.82,73.99-72,289-325.29,289.72-794.82,0-1120-23.98-26.92-46.44-48.74-73.99-72Z"/>
    <path class="cls-1" d="M1059.65,312.42c35.53,31.9,48.02,75.24,46.46,122.13-1.98,59.71-8.35,121.13-12.04,180.96-11.14,180.89-22.15,361.96-34.05,542.95-1.83,27.81-1.48,58.57-5.08,85.92-9.98,75.86-100.09,109.57-158.06,59.56-36.51-31.49-31.84-71.88-34.81-115.43-15.22-223.25-28.66-446.66-42-670-3.65-61.08-18.17-122.78,16.59-177.43,49.12-77.2,155.04-89.66,222.97-28.66Z"/>
    <path class="cls-1" d="M1060.49,1427.58c63.43,73.08,27.84,189.25-65.2,214.13-112.04,29.96-205.75-86.34-152.56-189.58,42.79-83.06,156.74-94.85,217.76-24.55Z"/>
  </g>
</svg>