<svg width="18" height="18" viewBox="0 0 18 18" fill="none" xmlns="http://www.w3.org/2000/svg">
<g clip-path="url(#clip0_2333_111779)">
<path d="M8.01422 5.63432L2.25172 10.3781V15.4999C2.25172 15.6326 2.3044 15.7597 2.39816 15.8535C2.49193 15.9473 2.61911 15.9999 2.75172 15.9999L6.25484 15.9906C6.38691 15.9897 6.51329 15.9367 6.60638 15.843C6.69947 15.7493 6.75172 15.6226 6.75172 15.4906V12.4999C6.75172 12.3673 6.8044 12.2402 6.89817 12.1464C6.99193 12.0526 7.11911 11.9999 7.25172 11.9999H9.25172C9.38433 11.9999 9.5115 12.0526 9.60527 12.1464C9.69904 12.2402 9.75172 12.3673 9.75172 12.4999V15.4874C9.75131 15.5534 9.76394 15.6187 9.78888 15.6798C9.81382 15.7408 9.85058 15.7963 9.89706 15.843C9.94353 15.8898 9.99879 15.9269 10.0597 15.9522C10.1205 15.9775 10.1858 15.9906 10.2517 15.9906L13.7517 15.9999C13.8843 15.9999 14.0115 15.9473 14.1053 15.8535C14.199 15.7597 14.2517 15.6326 14.2517 15.4999V10.3749L8.49234 5.63432C8.4246 5.57979 8.34025 5.55006 8.25328 5.55006C8.16632 5.55006 8.08196 5.57979 8.01422 5.63432ZM17.1142 8.85932L14.5017 6.7062V2.37807C14.5017 2.27862 14.4622 2.18324 14.3919 2.11291C14.3216 2.04258 14.2262 2.00307 14.1267 2.00307H12.3767C12.2773 2.00307 12.1819 2.04258 12.1116 2.11291C12.0412 2.18324 12.0017 2.27862 12.0017 2.37807V4.64682L9.20484 2.3437C8.93635 2.12275 8.59943 2.00195 8.25172 2.00195C7.904 2.00195 7.56709 2.12275 7.29859 2.3437L-0.613907 8.85932C-0.651879 8.89071 -0.683296 8.92927 -0.706361 8.9728C-0.729426 9.01633 -0.743687 9.06398 -0.748331 9.11303C-0.752974 9.16207 -0.747908 9.21155 -0.733422 9.25864C-0.718936 9.30572 -0.695315 9.34949 -0.663907 9.38745L0.132968 10.3562C0.164386 10.3946 0.20312 10.4264 0.246924 10.4498C0.290728 10.4731 0.33873 10.4875 0.388147 10.4922C0.437565 10.4968 0.487414 10.4916 0.534804 10.4769C0.582194 10.4621 0.626183 10.4381 0.664218 10.4062L8.01422 4.35307C8.08196 4.29854 8.16632 4.26881 8.25328 4.26881C8.34025 4.26881 8.4246 4.29854 8.49234 4.35307L15.8423 10.4062C15.8803 10.4376 15.9241 10.4612 15.9712 10.4757C16.0182 10.4902 16.0677 10.4953 16.1168 10.4906C16.1658 10.486 16.2135 10.4717 16.257 10.4487C16.3005 10.4256 16.3391 10.3942 16.3705 10.3562L17.1673 9.38745C17.1986 9.3493 17.222 9.30537 17.2362 9.25817C17.2504 9.21097 17.2552 9.16142 17.2503 9.11237C17.2454 9.06332 17.2308 9.01572 17.2075 8.9723C17.1841 8.92888 17.1524 8.89049 17.1142 8.85932Z" fill="black"/>
</g>
<defs>
<clipPath id="clip0_2333_111779">
<rect width="18" height="18" fill="white"/>
</clipPath>
</defs>
</svg>
