<svg width="24" height="24" viewBox="0 0 24 24" fill="none" xmlns="http://www.w3.org/2000/svg">
<rect width="24" height="24" rx="12" fill="#E40422"/>
<path d="M5.99922 9.89375C5.99922 6.6375 8.68672 4 11.9992 4C15.3117 4 17.9992 6.6375 17.9992 9.89375C17.9992 13.6219 14.243 18.0906 12.6742 19.7938C12.3055 20.1938 11.6898 20.1938 11.3211 19.7938C9.75234 18.0906 5.99609 13.6219 5.99609 9.89375H5.99922ZM11.9992 12C13.1023 12 13.9992 11.1031 13.9992 10C13.9992 8.89687 13.1023 8 11.9992 8C10.8961 8 9.99922 8.89687 9.99922 10C9.99922 11.1031 10.8961 12 11.9992 12Z" fill="white"/>
</svg>
