<svg width="48" height="48" viewBox="0 0 48 48" fill="none" xmlns="http://www.w3.org/2000/svg">
<g clip-path="url(#clip0_2425_73590)">
<path d="M47.25 24C47.25 36.8438 36.8438 47.25 24 47.25C11.1562 47.25 0.75 36.8438 0.75 24C0.75 11.1656 11.1562 0.75 24 0.75C36.8438 0.75 47.25 11.1656 47.25 24ZM24 28.6875C21.6187 28.6875 19.6875 30.6187 19.6875 33C19.6875 35.3812 21.6187 37.3125 24 37.3125C26.3813 37.3125 28.3125 35.3812 28.3125 33C28.3125 30.6187 26.3813 28.6875 24 28.6875ZM19.9031 13.1906L20.5969 25.9406C20.625 26.5406 21.1219 27 21.7219 27H26.2688C26.8688 27 27.3563 26.5313 27.3938 25.9406L28.0875 13.1906C28.125 12.5437 27.6094 12 26.9625 12H21.0187C20.3719 12 19.8562 12.5437 19.8937 13.1906H19.9031Z" fill="#E40422"/>
</g>
<defs>
<clipPath id="clip0_2425_73590">
<rect width="48" height="48" fill="white"/>
</clipPath>
</defs>
</svg>
